<svg width="36" height="36" viewBox="0 0 36 36" fill="none" xmlns="http://www.w3.org/2000/svg">
<rect width="36" height="36" rx="18" fill="url(#paint0_linear_114_434)" fill-opacity="0.16"/>
<rect x="0.5" y="0.5" width="35" height="35" rx="17.5" stroke="url(#paint1_linear_114_434)" stroke-opacity="0.24" stroke-linecap="round"/>
<path d="M24.8169 10.0001H11.1831C11.0298 9.998 10.8777 10.0259 10.7353 10.0823C10.5929 10.1386 10.463 10.2223 10.3532 10.3285C10.2433 10.4347 10.1556 10.5615 10.095 10.7014C10.0344 10.8413 10.0021 10.9918 10 11.1441V24.8559C10.0021 25.0082 10.0344 25.1587 10.095 25.2986C10.1556 25.4385 10.2433 25.5653 10.3532 25.6715C10.463 25.7777 10.5929 25.8614 10.7353 25.9177C10.8777 25.9741 11.0298 26.002 11.1831 25.9999H24.8169C24.9702 26.002 25.1223 25.9741 25.2647 25.9177C25.4071 25.8614 25.537 25.7777 25.6468 25.6715C25.7567 25.5653 25.8444 25.4385 25.905 25.2986C25.9656 25.1587 25.9979 25.0082 26 24.8559V11.1441C25.9979 10.9918 25.9656 10.8413 25.905 10.7014C25.8444 10.5615 25.7567 10.4347 25.6468 10.3285C25.537 10.2223 25.4071 10.1386 25.2647 10.0823C25.1223 10.0259 24.9702 9.998 24.8169 10.0001ZM14.8531 23.3919H12.4386V16.192H14.8531V23.3919ZM13.6459 15.184C13.3129 15.184 12.9935 15.0526 12.7581 14.8185C12.5226 14.5845 12.3903 14.267 12.3903 13.9361C12.3903 13.6051 12.5226 13.2876 12.7581 13.0536C12.9935 12.8196 13.3129 12.6881 13.6459 12.6881C13.8227 12.6681 14.0018 12.6856 14.1713 12.7392C14.3409 12.7928 14.4972 12.8814 14.6299 12.9992C14.7626 13.1171 14.8688 13.2614 14.9415 13.4228C15.0143 13.5843 15.0518 13.7592 15.0518 13.9361C15.0518 14.1129 15.0143 14.2878 14.9415 14.4493C14.8688 14.6107 14.7626 14.7551 14.6299 14.8729C14.4972 14.9907 14.3409 15.0793 14.1713 15.1329C14.0018 15.1866 13.8227 15.204 13.6459 15.184ZM23.5614 23.3919H21.1469V19.528C21.1469 18.56 20.8008 17.928 19.9235 17.928C19.652 17.93 19.3877 18.0146 19.1661 18.1705C18.9445 18.3264 18.7762 18.5461 18.6841 18.8C18.6211 18.988 18.5938 19.186 18.6036 19.384V23.3839H16.1891V16.184H18.6036V17.2C18.823 16.8217 19.142 16.51 19.5263 16.2986C19.9106 16.0871 20.3457 15.9839 20.7847 16C22.3944 16 23.5614 17.032 23.5614 19.248V23.3919Z" fill="#94A3B8"/>
<defs>
<linearGradient id="paint0_linear_114_434" x1="1.78848" y1="41.838" x2="29.3471" y2="9.73991" gradientUnits="userSpaceOnUse">
<stop stop-color="#7058EE"/>
<stop offset="0.53" stop-color="#C94DB5"/>
<stop offset="1" stop-color="#D8A557"/>
</linearGradient>
<linearGradient id="paint1_linear_114_434" x1="1.78848" y1="41.838" x2="29.3471" y2="9.73991" gradientUnits="userSpaceOnUse">
<stop stop-color="#7058EE"/>
<stop offset="0.53" stop-color="#C94DB5"/>
<stop offset="1" stop-color="#D8A557"/>
</linearGradient>
</defs>
</svg>
