<svg width="36" height="36" viewBox="0 0 36 36" fill="none" xmlns="http://www.w3.org/2000/svg">
<rect width="36" height="36" rx="18" fill="url(#paint0_linear_114_466)" fill-opacity="0.16"/>
<rect x="0.5" y="0.5" width="35" height="35" rx="17.5" stroke="url(#paint1_linear_114_466)" stroke-opacity="0.24" stroke-linecap="round"/>
<path d="M14.64 10H21.36C23.92 10 26 12.08 26 14.64V21.36C26 22.5906 25.5111 23.7708 24.641 24.641C23.7708 25.5111 22.5906 26 21.36 26H14.64C12.08 26 10 23.92 10 21.36V14.64C10 13.4094 10.4889 12.2292 11.359 11.359C12.2292 10.4889 13.4094 10 14.64 10ZM14.48 11.6C13.7162 11.6 12.9836 11.9034 12.4435 12.4435C11.9034 12.9836 11.6 13.7162 11.6 14.48V21.52C11.6 23.112 12.888 24.4 14.48 24.4H21.52C22.2838 24.4 23.0164 24.0966 23.5565 23.5565C24.0966 23.0164 24.4 22.2838 24.4 21.52V14.48C24.4 12.888 23.112 11.6 21.52 11.6H14.48ZM22.2 12.8C22.4652 12.8 22.7196 12.9054 22.9071 13.0929C23.0946 13.2804 23.2 13.5348 23.2 13.8C23.2 14.0652 23.0946 14.3196 22.9071 14.5071C22.7196 14.6946 22.4652 14.8 22.2 14.8C21.9348 14.8 21.6804 14.6946 21.4929 14.5071C21.3054 14.3196 21.2 14.0652 21.2 13.8C21.2 13.5348 21.3054 13.2804 21.4929 13.0929C21.6804 12.9054 21.9348 12.8 22.2 12.8ZM18 14C19.0609 14 20.0783 14.4214 20.8284 15.1716C21.5786 15.9217 22 16.9391 22 18C22 19.0609 21.5786 20.0783 20.8284 20.8284C20.0783 21.5786 19.0609 22 18 22C16.9391 22 15.9217 21.5786 15.1716 20.8284C14.4214 20.0783 14 19.0609 14 18C14 16.9391 14.4214 15.9217 15.1716 15.1716C15.9217 14.4214 16.9391 14 18 14ZM18 15.6C17.3635 15.6 16.753 15.8529 16.3029 16.3029C15.8529 16.753 15.6 17.3635 15.6 18C15.6 18.6365 15.8529 19.247 16.3029 19.6971C16.753 20.1471 17.3635 20.4 18 20.4C18.6365 20.4 19.247 20.1471 19.6971 19.6971C20.1471 19.247 20.4 18.6365 20.4 18C20.4 17.3635 20.1471 16.753 19.6971 16.3029C19.247 15.8529 18.6365 15.6 18 15.6Z" fill="#94A3B8"/>
<defs>
<linearGradient id="paint0_linear_114_466" x1="1.78848" y1="41.838" x2="29.3471" y2="9.73991" gradientUnits="userSpaceOnUse">
<stop stop-color="#7058EE"/>
<stop offset="0.53" stop-color="#C94DB5"/>
<stop offset="1" stop-color="#D8A557"/>
</linearGradient>
<linearGradient id="paint1_linear_114_466" x1="1.78848" y1="41.838" x2="29.3471" y2="9.73991" gradientUnits="userSpaceOnUse">
<stop stop-color="#7058EE"/>
<stop offset="0.53" stop-color="#C94DB5"/>
<stop offset="1" stop-color="#D8A557"/>
</linearGradient>
</defs>
</svg>
