<svg viewBox="3.71754054054054 0.5988230000000012 93.51351351351352 96.11999999999999" version="1.1" xmlns="http://www.w3.org/2000/svg" style="max-height: 500px" width="93.51351351351352" height="96.11999999999999">
 <path fill-rule="evenodd" d="m61.758 38.242c-3.0078-3.0078-7.1641-4.8711-11.758-4.8711s-8.7461 1.8594-11.758 4.8711c-3.0078 3.0078-4.8711 7.1641-4.8711 11.758s1.8594 8.7461 4.8711 11.758c3.0078 3.0078 7.1641 4.8711 11.758 4.8711s8.7461-1.8594 11.758-4.8711c3.0078-3.0078 4.8711-7.1641 4.8711-11.758s-1.8594-8.7461-4.8711-11.758zm-11.758-6.9297c5.1602 0 9.832 2.0938 13.215 5.4727 3.3828 3.3828 5.4727 8.0547 5.4727 13.215s-2.0938 9.832-5.4727 13.215c-3.3828 3.3828-8.0547 5.4727-13.215 5.4727s-9.832-2.0938-13.215-5.4727c-3.3828-3.3828-5.4727-8.0547-5.4727-13.215s2.0938-9.832 5.4727-13.215c3.3828-3.3828 8.0547-5.4727 13.215-5.4727zm-6.9219-9.4688 1.9492-6.0781c0.10547-0.45703 0.51562-0.79688 1.0039-0.79688h7.9336v0.003906c0.43359 0 0.83984 0.27734 0.97656 0.71484l1.9727 6.1562 0.72656 0.19922c1.1758 0.32031 2.3281 0.71484 3.4414 1.1758 1.1367 0.46875 2.2305 1.0078 3.2734 1.6016l0.65625 0.375 5.6836-2.9258c0.39453-0.24219 0.92188-0.19141 1.2617 0.15234l5.6094 5.6094-0.003906 0.003906c0.30859 0.30859 0.39844 0.78906 0.1875 1.1992l-2.957 5.7461 0.375 0.65625c0.59766 1.043 1.1328 2.1367 1.6016 3.2734 0.46484 1.1172 0.85547 2.2656 1.1758 3.4453l0.19922 0.72656 6.0781 1.9492c0.45703 0.10547 0.79688 0.51562 0.79688 1.0039v7.9336h-0.003906c0 0.43359-0.27734 0.83984-0.71484 0.97656l-6.1562 1.9727-0.19922 0.72656c-0.32422 1.1836-0.71875 2.3359-1.1758 3.4453-0.46875 1.1328-1.0039 2.2266-1.6016 3.2695l-0.375 0.65625 2.9258 5.6836c0.24219 0.39453 0.19141 0.92188-0.15234 1.2617l-5.6094 5.6094-0.003906-0.003906c-0.30859 0.30859-0.78906 0.39844-1.1992 0.1875l-5.7461-2.957-0.65625 0.375c-1.043 0.59766-2.1367 1.1328-3.2734 1.6016-1.1172 0.46484-2.2656 0.85547-3.4453 1.1758l-0.72656 0.19922-1.9492 6.0781c-0.10547 0.45703-0.51562 0.79688-1.0039 0.79688h-7.9336v-0.003907c-0.43359 0-0.83984-0.27734-0.97656-0.71484l-1.9727-6.1562-0.72656-0.19922c-1.1758-0.32031-2.3281-0.71484-3.4453-1.1758-1.1367-0.46875-2.2305-1.0078-3.2734-1.6016l-0.65625-0.375-5.6836 2.9258c-0.39453 0.24219-0.92188 0.19141-1.2617-0.15234l-5.6094-5.6094 0.003907-0.003907c-0.30859-0.30859-0.39844-0.78906-0.1875-1.1992l2.957-5.7461-0.375-0.65625c-0.59766-1.043-1.1328-2.1367-1.6016-3.2734-0.46484-1.1172-0.85547-2.2656-1.1758-3.4453l-0.19922-0.72656-6.0781-1.9492c-0.45703-0.10547-0.79687-0.51563-0.79687-1.0039v-7.9336h0.003906c0-0.43359 0.27734-0.83984 0.71484-0.97656l6.1562-1.9727 0.19922-0.72656c0.31641-1.1602 0.70312-2.293 1.1562-3.3945 0.007813-0.019531 0.011719-0.035156 0.019532-0.054687 0.46484-1.125 1.0039-2.2188 1.6016-3.2695l0.375-0.65625-2.9258-5.6836c-0.24219-0.39453-0.19141-0.92187 0.15234-1.2617l5.6094-5.6094h0.003906c0.30859-0.30469 0.78906-0.39453 1.1992-0.18359l5.7461 2.957 0.65625-0.375c1.043-0.59766 2.1367-1.1328 3.2734-1.6016 1.1172-0.46484 2.2656-0.85547 3.4453-1.1758l0.72656-0.19922zm3.6992-4.8125h6.4375l1.9141 5.9688c0.10156 0.32031 0.35938 0.58203 0.70703 0.67578l1.2656 0.34375c1.0859 0.29688 2.1562 0.66016 3.2031 1.0977 1.0273 0.42578 2.0391 0.92578 3.0312 1.4883l1.1406 0.65234c0.29297 0.16406 0.66016 0.1875 0.98047 0.019532l5.5742-2.8672 4.5508 4.5508-2.8438 5.5234c-0.17969 0.30859-0.19531 0.69922-0.007812 1.0352l0.65234 1.1406c0.56641 0.98828 1.0625 2.0039 1.4883 3.0312 0.43359 1.0469 0.80078 2.1172 1.0977 3.2031l0.33203 1.2188c0.078125 0.34375 0.32812 0.63672 0.6875 0.75391l5.9688 1.9141v6.4375l-5.9688 1.9141c-0.32031 0.10547-0.58203 0.35938-0.67578 0.70703l-0.34375 1.2656c-0.29297 1.0781-0.66016 2.1445-1.0977 3.1992v0.003906c-0.42578 1.0273-0.92578 2.0391-1.4883 3.0312l-0.65234 1.1406c-0.16797 0.29297-0.1875 0.66016-0.019531 0.98047l2.8672 5.5742-4.5508 4.5508-5.5234-2.8438c-0.30859-0.17969-0.69922-0.19531-1.0352-0.007813l-1.1406 0.65234c-0.98828 0.56641-2.0039 1.0625-3.0312 1.4883-1.0469 0.43359-2.1172 0.80078-3.2031 1.0977l-1.2188 0.33203c-0.34375 0.078124-0.63672 0.32812-0.75391 0.6875l-1.9141 5.9688h-6.4375l-1.9141-5.9688c-0.10156-0.32031-0.35938-0.58203-0.70703-0.67578l-1.2656-0.34375c-1.0859-0.29688-2.1562-0.66406-3.2031-1.0977-1.0273-0.42578-2.0391-0.92188-3.0312-1.4883l-1.1406-0.65234c-0.29297-0.16406-0.66016-0.1875-0.98047-0.019531l-5.5742 2.8672-4.5508-4.5508 2.8438-5.5234c0.17969-0.30859 0.19531-0.69922 0.007812-1.0352l-0.65234-1.1406c-0.56641-0.98828-1.0625-2.0039-1.4883-3.0312-0.43359-1.0469-0.80078-2.1172-1.0977-3.2031l-0.33203-1.2188c-0.078125-0.34375-0.32812-0.63672-0.6875-0.75391l-5.9688-1.9141v-6.4375l5.9688-1.9141c0.32031-0.10547 0.58203-0.35938 0.67578-0.70703l0.34375-1.2656c0.28906-1.0664 0.64844-2.1172 1.0742-3.1484l0.023437-0.050781c0.42969-1.0391 0.92969-2.0508 1.4883-3.0352l0.65234-1.1406c0.16797-0.29297 0.1875-0.66016 0.019532-0.98047l-2.8672-5.5742 4.5508-4.5508 5.5234 2.8438c0.30859 0.17969 0.69922 0.19531 1.0352 0.007812l1.1406-0.65234c0.98828-0.56641 2.0039-1.0625 3.0312-1.4883 1.0469-0.43359 2.1172-0.80078 3.2031-1.0977l1.2188-0.33203c0.34375-0.078125 0.63672-0.32812 0.75391-0.6875zm-9.375-3.2266-3.9062-1.8828c0.13281-0.058594 0.26172-0.11328 0.39453-0.16797 0.82031-0.34375 1.625-0.65625 2.418-0.93359 8.2578-2.8867 16.812-3.0078 24.652-0.85156 8.0664 2.2188 15.379 6.8438 20.84 13.355 0.36328 0.4375 1.0117 0.49219 1.4492 0.12891s0.49219-1.0117 0.12891-1.4492c-5.7305-6.8281-13.406-11.688-21.879-14.016-8.2305-2.2617-17.203-2.1328-25.867 0.89453-0.83594 0.28906-1.6289 0.59375-2.3867 0.90625l1.5977-3.3086c0.24609-0.51172 0.03125-1.125-0.48047-1.3711s-1.125-0.03125-1.3711 0.48047l-2.8281 5.8672c-0.074218 0.15625-0.10547 0.32031-0.10156 0.48047v0.003906 0.019532 0.007812 0.011719 0.015625l0.003906 0.007812 0.003906 0.019532v0.003906c0.003907 0.023437 0.007813 0.046875 0.011719 0.070312 0.007813 0.039063 0.019531 0.078125 0.03125 0.11719l0.007813 0.023437 0.007812 0.019531c0.070313 0.19141 0.19531 0.35938 0.37109 0.48047l0.039062 0.03125 0.019532 0.011719 0.003906 0.003906 0.015625 0.011719 0.003906 0.003906c0.019531 0.011719 0.039063 0.023438 0.0625 0.03125l5.8672 2.8281c0.51172 0.24609 1.125 0.03125 1.3711-0.48047 0.24609-0.51172 0.03125-1.125-0.48047-1.3711zm-23.598 48.789-1.8828 3.9062c-0.058594-0.13281-0.11328-0.26172-0.16797-0.39453-0.34375-0.82031-0.65625-1.625-0.93359-2.418-2.8867-8.2578-3.0078-16.812-0.85156-24.652 2.2188-8.0664 6.8438-15.379 13.355-20.84 0.4375-0.36328 0.49219-1.0117 0.12891-1.4492s-1.0117-0.49219-1.4492-0.12891c-6.8281 5.7305-11.688 13.406-14.016 21.879-2.2617 8.2305-2.1328 17.203 0.89453 25.867 0.28906 0.83594 0.59375 1.6289 0.90625 2.3867l-3.3086-1.5977c-0.51172-0.24609-1.125-0.03125-1.3711 0.48047-0.24609 0.51172-0.03125 1.125 0.48047 1.3711l5.8672 2.8281c0.15625 0.074219 0.32031 0.10547 0.48047 0.10156h0.003906 0.019532 0.007812 0.011719 0.015625l0.007812-0.003906 0.019532-0.003907h0.003906c0.023437-0.003906 0.046875-0.007812 0.070312-0.011719 0.039063-0.007812 0.078125-0.019531 0.11719-0.03125 0 0 0.023437-0.007812 0.023437-0.007812l0.019531-0.007812c0.19141-0.070313 0.35938-0.19531 0.48047-0.37109l0.015625-0.019532 0.023438-0.039062 0.003906-0.003906 0.011719-0.015625 0.003906-0.003907c0.011719-0.019531 0.023437-0.039062 0.03125-0.0625l2.8281-5.8672c0.24609-0.51172 0.03125-1.125-0.48047-1.3711-0.51172-0.24609-1.125-0.03125-1.3711 0.48047zm48.789 23.602 3.9062 1.8828c-0.13281 0.058594-0.26172 0.11328-0.39453 0.16797-0.82031 0.34375-1.625 0.65625-2.418 0.92969-8.2578 2.8867-16.812 3.0078-24.652 0.85156-8.0664-2.2188-15.379-6.8438-20.84-13.355-0.36328-0.4375-1.0117-0.49219-1.4492-0.12891s-0.49219 1.0117-0.12891 1.4492c5.7305 6.8281 13.406 11.688 21.879 14.016 8.2305 2.2617 17.203 2.1328 25.867-0.89453 0.83594-0.28906 1.6289-0.59375 2.3867-0.90625l-1.5977 3.3086c-0.24609 0.51172-0.03125 1.125 0.48047 1.3711 0.51172 0.24609 1.125 0.03125 1.3711-0.48047l2.8281-5.8672c0.085938-0.17969 0.11719-0.37109 0.097657-0.55469v-0.003906l-0.003907-0.019531v-0.007813l-0.003906-0.015625-0.003906-0.011719-0.003907-0.015625-0.003906-0.007812-0.003906-0.019532v-0.007812l-0.003906-0.015625-0.019532-0.058594c-0.003906-0.015625-0.007812-0.03125-0.015624-0.046875-0.085938-0.25391-0.26953-0.46875-0.52344-0.59375l-5.8672-2.8281c-0.51172-0.24609-1.125-0.03125-1.3711 0.48047-0.24609 0.51172-0.03125 1.125 0.48047 1.3711zm23.602-48.789 1.8828-3.9062c0.058594 0.13281 0.11328 0.26172 0.16797 0.39453 0.34375 0.82031 0.65625 1.625 0.92969 2.418 2.8867 8.2578 3.0078 16.812 0.85156 24.652-2.2188 8.0664-6.8438 15.379-13.355 20.84-0.4375 0.36328-0.49219 1.0117-0.12891 1.4492s1.0117 0.49219 1.4492 0.12891c6.8281-5.7305 11.688-13.406 14.016-21.879 2.2617-8.2305 2.1328-17.203-0.89453-25.867-0.28906-0.83594-0.59375-1.6289-0.90625-2.3867l3.3086 1.5977c0.51172 0.24609 1.125 0.03125 1.3711-0.48047 0.24609-0.51172 0.03125-1.125-0.48047-1.3711l-5.8672-2.8281c-0.17969-0.085938-0.37109-0.11719-0.55469-0.097657h-0.003906s-0.019531 0.003907-0.019531 0.003907h-0.007813l-0.015625 0.003906-0.011719 0.003906-0.015625 0.003907-0.007812 0.003906-0.019532 0.003906h-0.007812l-0.015625 0.003906-0.058594 0.019532c-0.015625 0.003906-0.03125 0.007812-0.046875 0.015624-0.25 0.085938-0.46875 0.26953-0.59375 0.52734l-2.8281 5.8672c-0.24609 0.51172-0.03125 1.125 0.48047 1.3711 0.51172 0.24609 1.125 0.03125 1.3711-0.48047zm-35.395 11.793c0.20312 0.20312 0.33203 0.48828 0.33203 0.80078s-0.12891 0.59766-0.33203 0.80078-0.48828 0.33203-0.80078 0.33203-0.59766-0.12891-0.80078-0.33203-0.33203-0.48828-0.33203-0.80078 0.12891-0.59766 0.33203-0.80078 0.48828-0.33203 0.80078-0.33203 0.59766 0.12891 0.80078 0.33203zm-1.832-8.8984c0-0.57031 0.46094-1.0312 1.0312-1.0312s1.0312 0.46094 1.0312 1.0312v6.6758c0.46875 0.16016 0.88672 0.42578 1.2266 0.76563 0.57813 0.57812 0.9375 1.375 0.9375 2.2578 0 0.24609-0.027343 0.48828-0.082031 0.71875l4.2422 2.625c0.48047 0.29688 0.63281 0.92969 0.33594 1.4141-0.29688 0.48047-0.92969 0.63281-1.4141 0.33594l-4.2461-2.6289c-0.55078 0.45703-1.2617 0.73047-2.0312 0.73047-0.88281 0-1.6797-0.35937-2.2578-0.9375-0.57813-0.57812-0.9375-1.375-0.9375-2.2578s0.35937-1.6797 0.9375-2.2578c0.34375-0.34375 0.76172-0.60547 1.2266-0.76563zm2.0625-3.5039v1.0312h-2.0625v-2.1445h2.0625zm-6.7422 1.2539 0.51563 0.89062-1.7773 1.0312-1.0703-1.8516 1.7773-1.0312 0.55859 0.96094zm-5.207 4.457 0.89062 0.51563-1.0312 1.7773-1.8516-1.0703 1.0312-1.7773 0.96094 0.55859zm-2.2852 6.4609h1.0312v2.0625h-2.1445v-2.0625zm1.2539 6.7422 0.89062-0.51563 1.0312 1.7773-1.8516 1.0703-1.0312-1.7773 0.96094-0.55859zm4.457 5.207 0.51563-0.89062 1.7773 1.0312-1.0703 1.8516-1.7773-1.0312 0.55859-0.96094zm6.4609 2.2852v-1.0312h2.0625v2.1445h-2.0625zm6.7422-1.2539-0.51563-0.89062 1.7773-1.0312 1.0703 1.8516-1.7773 1.0312-0.55859-0.96094zm5.207-4.457-0.89062-0.51563 1.0312-1.7773 1.8516 1.0703-1.0312 1.7773-0.96094-0.55859zm2.2852-6.4609h-1.0312v-2.0625h2.1445v2.0625zm-1.2539-6.7422-0.89062 0.51563-1.0312-1.7773 1.8516-1.0703 1.0312 1.7773-0.96094 0.55859zm-4.457-5.207-0.51563 0.89062-1.7773-1.0312 1.0703-1.8516 1.7773 1.0312-0.55859 0.96094z"/></svg>